<svg xmlns="http://www.w3.org/2000/svg" viewBox="0 0 825.91 230.72"><defs><style>.cls-1{fill:#11bf62;}</style></defs><g id="Layer_2" data-name="Layer 2"><g id="Layer_1-2" data-name="Layer 1"><path class="cls-1" d="M794.59,216.72c-34.78-20.17-60.89-47.17-69.2-88.1-.61-3-1.83-3.6-4.71-3.36a81.94,81.94,0,0,1-30.11-3.21c-18.56-5.45-33.22-16.49-44.66-31.93-1.68-2.28-3-3.76-6.45-2.7a84.87,84.87,0,0,1-33.09,3.13c-8.46-.74-17.21-1.64-24.76-5.47C568.25,78.28,556,69.76,547,57.33c-1.25-1.74-2.27-2.51-4.34-.82-8.92,7.31-19.12,7.91-29.74,5-2.24-.62-3.51-.63-5.09,1.3A104.3,104.3,0,0,1,499,72.27c-19,18.15-40.7,30.78-67.18,34.46-9,1.25-17.88.08-26.81-.29l-2.21-.45c-1.17,1.12-2.44.58-3.71.22a78.74,78.74,0,0,1-21.11-9c-1.24-.77-2.79-1.22-2.91-3l-2-1.4-.81-.45-1.07-.78c-1.19.2-1.95-.18-2-1.49a.36.36,0,0,0-.39-.37c-.78,0-1.32-.24-1.36-1.12l-.18-.15c-2.57-.39-4.95-.65-7.41,1.05a6.11,6.11,0,0,1-6.16.76l-4.89.53a2.93,2.93,0,0,1-4.47,0C335,91.22,327,87.8,319,83.75c-13.76-7-25.79-16-32.92-30.11-1.72-3.41-3.07-3.66-6.4-2.28-17,7.06-34.43,12.54-52.94,14.59-17.8,2-35.55,2.56-53.32.73C147.62,64,123.05,57.25,101.53,42,87.89,32.36,77.79,20.14,75.82,2.78c-.48-4.25-2.94-2.5-5-2A224.79,224.79,0,0,1,0,6.76v201c5.38,11.38,14,19.13,26,23H825.91C815.35,226.32,804.54,222.49,794.59,216.72Z"/></g></g></svg>