<svg xmlns="http://www.w3.org/2000/svg" viewBox="0 0 718.92 203.9"><defs><style>.cls-1{fill:#11bf62;}</style></defs><g id="Layer_2" data-name="Layer 2"><g id="Layer_1-2" data-name="Layer 1"><path class="cls-1" d="M435,0H23A42,42,0,0,0,0,22V123c1.49-.8,2.49.36,3.62.92a290.83,290.83,0,0,1,62,41.55,18.5,18.5,0,0,0,10.11,4.66,201.36,201.36,0,0,1,32.58,7.38c21.19,6.5,41.82,14.45,61.15,25.48,1.95,1.12,3.32,1.68,4.73-1,3.38-6.49,8.61-11.42,14.62-15.43a112.77,112.77,0,0,1,44-17.63c29.71-5.1,59-5.38,86.78,8.45,2.43,1.21,4,.35,5.95-.73,5.65-3.17,11.26-6.46,17.06-9.35,18.81-9.38,38.66-16.05,58.77-22,18.5-4.17,37-8.12,56-9.19,2.23-.13,3.09-1.7,4.06-3.25,10.43-16.71,25.85-24.89,45.19-26,3.79-.21,6.07-1.38,7.89-4.73A74.86,74.86,0,0,1,526.9,85.89C557.48,54.36,603,46.82,642,66.86c3.79,2,5.55,2.39,7.27-2.49,5.84-16.57,16.41-29.9,29.69-41.23C690.88,13,704.63,6,718.92,0Zm-50.6,145.78c-.72,0-1.14-.51-.76-1.18a1.35,1.35,0,0,1,1.19-.34c.32.07.55.53,1,1A4.84,4.84,0,0,1,384.35,145.78Z"/></g></g></svg>